<svg xmlns="http://www.w3.org/2000/svg" id="Layer_1" version="1.1" viewBox="0 0 263.77 85.87"><defs><style>.st0{fill:#fff}</style></defs><path d="M229.16 22.99c-1.05-.73-2.35-1.24-3.88-1.51-1.55-.28-3.33-.41-5.29-.41h-6.53v22.08c3.03.67 6.38.76 9.9.01 1.63-.35 3.14-.98 4.5-1.9 1.35-.91 2.47-2.18 3.33-3.77.86-1.6 1.3-3.69 1.3-6.22 0-2.13-.3-3.88-.89-5.21-.58-1.31-1.41-2.34-2.44-3.07" class="st0"/><path d="M243.02.03V0h-62.83v85.87h62.83c11.46 0 20.75-9.29 20.75-20.75V.03h-20.75Zm-5.07 39.14c-1.47 2.12-3.31 3.8-5.46 4.99-2.14 1.19-4.44 2-6.83 2.41-2.37.41-4.51.62-6.36.62-1.18 0-2.25-.01-3.22-.04-.86-.02-1.74-.08-2.63-.16v3.83c0 3.36.06 6.69.19 9.92.13 3.26.27 6.46.42 9.62l.02.38-.39-.03c-2.3-.2-5.14-.2-7.42 0l-.38.03.02-.38c.15-3.16.29-6.36.42-9.62.13-3.25.19-6.59.19-9.92V37.69c0-3.33-.06-6.65-.19-9.88-.13-3.23-.27-6.53-.42-9.89l-.02-.38.38.03c1.22.1 2.45.19 3.7.27 1.26.07 2.5.11 3.69.11.63 0 1.36-.02 2.19-.08.87-.05 1.75-.09 2.64-.11.89-.03 1.74-.06 2.55-.12.84-.05 1.52-.08 2.08-.08.76 0 1.69.03 2.84.08 1.13.05 2.35.21 3.6.47 1.26.26 2.53.65 3.77 1.16 1.26.53 2.41 1.3 3.43 2.29s1.85 2.25 2.48 3.74c.63 1.49.95 3.35.95 5.51 0 3.42-.75 6.23-2.24 8.37M90.07 85.87h83.57V0H90.07v85.87Zm56.89-15.6.14.45-.47-.02c-2.26-.1-4.55-.15-6.82-.15h-13.86c-2.3 0-4.63.05-6.93.15l-.37.02.02-.37c.15-3.26.29-6.5.42-9.74.13-3.23.19-6.55.19-9.88V37.59c0-3.33-.06-6.66-.19-9.92-.13-3.25-.27-6.51-.42-9.77l-.02-.37.37.02c2.29.1 4.57.19 6.83.27 4.59.15 9.06.15 13.61 0 2.24-.08 4.51-.17 6.8-.27l.43-.02-.08.42c-.15.74-.22 1.49-.22 2.22s.08 1.48.22 2.23l.09.43-.44-.03c-1.63-.1-3.12-.2-4.47-.31-1.35-.1-2.77-.2-4.27-.3-1.51-.1-3.16-.19-4.91-.27-1.7-.07-3.74-.11-6.08-.12-.05 1.51-.11 2.96-.18 4.34-.07 1.5-.11 3.19-.11 5.02 0 1.98.01 3.92.04 5.8.02 1.68.03 2.99.04 3.94 2.07 0 3.98-.03 5.69-.08 1.77-.05 3.41-.11 4.88-.19 1.48-.08 2.84-.15 4.08-.23 1.24-.08 2.42-.16 3.54-.27l.45-.04-.09.44c-.15.74-.23 1.52-.23 2.3 0 .73.08 1.48.23 2.22l.09.45-.46-.05c-1.3-.15-2.85-.28-4.6-.38-1.74-.1-3.51-.16-5.25-.19h-.22c-1.67-.03-3.26-.05-4.74-.08-1.37-.02-2.49-.03-3.37-.04 0 .37-.02.76-.03 1.17-.03.54-.04 1.2-.04 2.01v7.56c0 2.9.01 5.29.04 7.18.02 1.67.05 3 .1 3.94h5.03c1.93 0 3.84-.04 5.68-.12 1.91-.08 3.63-.18 5.26-.3 1.64-.12 3.08-.32 4.27-.57l.55-.11-.15.54c-.09.33-.15.7-.18 1.11-.02.43-.04.82-.04 1.17 0 .78.07 1.41.21 1.89M20.75 0C9.29 0 0 9.29 0 20.75v65.1h20.75v.03h62.83V0H20.75ZM61.9 70.7c-.74-.1-1.5-.15-2.25-.15h-4.39c-.67 0-1.36.05-2.05.15l-.18.02-.12-.14c-1.84-2.1-3.89-4.52-6.08-7.19-2.21-2.7-4.38-5.31-6.49-7.83-2.12-2.52-4.03-4.78-5.73-6.8-1.73-2.04-2.96-3.42-3.77-4.22-.59-.59-.68-.51-.68-.51-.02 0-.04.04-.04.12v6.65c0 3.33.06 6.66.19 9.92s.27 6.46.42 9.62l.02.39-.38-.04c-2.3-.2-5.14-.2-7.43 0l-.39.04.02-.39c.15-3.16.29-6.36.42-9.62.13-3.23.19-6.56.19-9.92V37.66c0-3.35-.06-6.68-.19-9.88-.13-3.23-.27-6.53-.42-9.89l-.02-.41.41.06c.66.1 1.29.19 1.9.27 1.21.15 2.36.15 3.58 0 .61-.08 1.24-.16 1.9-.27l.41-.06-.02.41c-.15 3.36-.29 6.66-.42 9.89-.12 3.19-.19 10.64-.19 10.72 0 .27.06.27.12.27.02 0 .22-.03.84-.6 1.77-1.52 3.66-3.26 5.6-5.18.57-.57 2.02-1.94 3.81-3.66 4.26-4.08 10.69-10.23 11.94-11.66l.13-.14.19.04c.52.09 2.3.26 2.8.26.16 0 .46 0 .82.01.91.02 2.42.05 2.85 0 .61-.08 1.21-.16 1.82-.26l1.2-.2-.92.79c-1.74 1.49-3.77 3.31-6.02 5.41-2.22 2.07-4.5 4.22-6.76 6.41-2.21 2.14-4.4 4.31-6.48 6.44-1.94 1.99-3.61 3.77-4.95 5.3 4.21 4.74 8.35 9.42 12.29 13.95 4.24 4.86 8.55 9.73 12.79 14.47l.61.68-.9-.12Z" class="st0"/></svg>